# xmcd CD database file
#
# Track frame offsets:
#	150
#	19627
#	38342
#	56836
#	78163
#	96565
#	113590
#	136899
#	156013
#	179154
#	201256
#	222206
#	244218
#	263710
#	283355
#	311609
#
# Disc length: 4427 seconds
#
# Revision: 0
# Processed by: cddbd v1.5.1PL2 Copyright (c) Steve Scherf et al.
# Submitted via: CDex 1.51
#
DISCID=e4114910
DTITLE=Various Artist - Colombia En Su Salsa - Grandes Exitos
DYEAR=2000
DGENRE=Salsa
TTITLE0=Hansel Camacho - Verdades
TTITLE1=Son De Azucar - No Soy Un Juego
TTITLE2=La Suprema Corte - Escombros
TTITLE3=Los Niches - Que Nunca Me Falte
TTITLE4=La Identidad - Quiereme
TTITLE5=Kike Harvey - Guedezaina
TTITLE6=Las Misma Gente - Raquel
TTITLE7=Los Titanes - Sobredosis
TTITLE8=Grupo Caneo - Para Amarnos Mas
TTITLE9=La Identidad - Un Toque De Misterio
TTITLE10=Octava Dimension - Amor De Ayer
TTITLE11=La Suprema Corte - Contaminado
TTITLE12=Juan Carlos Coronel - Ayer Yo la Vi
TTITLE13=Grupo Gale - La Chica De La Esquina
TTITLE14=Joe Arroyo - La Rebelion
TTITLE15=Hermes Manyoma - Sonero Llego
EXTD=YEAR: 2000
EXTT0=
EXTT1=
EXTT2=
EXTT3=
EXTT4=
EXTT5=
EXTT6=
EXTT7=
EXTT8=
EXTT9=
EXTT10=
EXTT11=
EXTT12=
EXTT13=
EXTT14=
EXTT15=
PLAYORDER=
